<?xml version="1.0" encoding="UTF-8" standalone="no"?>
<svg
   width="1024"
   height="1024"
   version="1.1"
   id="svg3"
   sodipodi:docname="logo.svg"
   inkscape:version="1.4 (e7c3feb100, 2024-10-09)"
   inkscape:export-filename="logo.svg"
   inkscape:export-xdpi="96"
   inkscape:export-ydpi="96"
   xmlns:inkscape="http://www.inkscape.org/namespaces/inkscape"
   xmlns:sodipodi="http://sodipodi.sourceforge.net/DTD/sodipodi-0.dtd"
   xmlns="http://www.w3.org/2000/svg"
   xmlns:svg="http://www.w3.org/2000/svg">
   <defs
      id="defs3" />
   <sodipodi:namedview
      id="namedview3"
      pagecolor="#ffffff"
      bordercolor="#000000"
      borderopacity="0.25"
      inkscape:showpageshadow="2"
      inkscape:pageopacity="0.0"
      inkscape:pagecheckerboard="0"
      inkscape:deskcolor="#d1d1d1"
      showgrid="true"
      inkscape:zoom="0.38117475"
      inkscape:cx="596.83912"
      inkscape:cy="564.04576"
      inkscape:window-width="1366"
      inkscape:window-height="754"
      inkscape:window-x="0"
      inkscape:window-y="0"
      inkscape:window-maximized="1"
      inkscape:current-layer="svg3">
      <inkscape:grid
         id="grid3"
         units="px"
         originx="0"
         originy="0"
         spacingx="1"
         spacingy="1"
         empcolor="#0099e5"
         empopacity="0.30196078"
         color="#0099e5"
         opacity="0.14901961"
         empspacing="5"
         enabled="true"
         visible="true" />
   </sodipodi:namedview>
   <g
      id="g3"
      transform="matrix(1.314562,0,0,1.314562,-160.96157,-160.74343)">
      <path
         d="m 613.329,320.678 c 11.185,-1.995 39.106,1.355 50.696,3.653 48.837,9.683 93.004,41.965 120.357,83.073 26.915,40.449 38.018,92.461 28.397,140.28 -9.919,51.242 -40.162,96.286 -83.837,124.864 -28.228,18.917 -61.06,29.821 -94.997,31.549 -8.953,0.389 -18.023,0.271 -26.829,-1.516 -6.247,-1.875 -11.905,-4.992 -16.553,-9.608 -14.277,-14.18 -11.651,-34.436 -11.348,-52.819 0.112,-10.331 0.165,-20.663 0.162,-30.996 -5.535,0.576 -11.318,0.322 -16.889,0.352 -7.319,0.039 -14.7,0.245 -22.013,-0.031 -5.779,-0.218 -12.182,-1.133 -16.212,-5.737 -2.39,-2.73 -3.144,-6.215 -2.83,-9.766 0.29,-3.291 1.704,-6.198 4.253,-8.321 2.742,-2.283 6.187,-3.443 9.675,-3.973 6.127,-0.931 13.044,-0.288 19.25,-0.254 8.226,0.045 16.754,-0.374 24.933,0.498 -0.488,-18.693 -0.658,-37.393 -0.512,-56.092 -0.347,0.073 -1.023,0.229 -1.416,0.275 -3.71,0.435 -7.992,-0.14 -11.751,-0.155 -10.283,-0.043 -21.539,0.905 -31.689,-0.688 -3.011,-0.473 -6.2,-1.212 -8.525,-3.299 -3.055,-2.742 -4.419,-7.515 -4.455,-11.505 -0.028,-3.008 1.15,-5.761 3.363,-7.798 2.312,-2.127 5.345,-3.284 8.367,-3.965 11.294,-2.546 33.722,-0.591 46.12,-0.346 0.958,-17.87 0.045,-38.603 -0.011,-56.786 -7.657,-0.09 -15.315,-0.069 -22.972,0.064 -6.988,0.169 -14.373,0.962 -21.293,-0.277 -3.435,-0.615 -6.95,-1.859 -9.553,-4.261 -2.63,-2.427 -3.785,-5.624 -3.813,-9.16 -0.029,-3.533 0.995,-6.927 3.582,-9.433 2.124,-2.057 4.934,-3.315 7.796,-3.951 8.54,-1.898 36.115,-0.448 46.303,-0.078 0.407,-12.311 0.116,-24.786 0.009,-37.108 -0.076,-8.801 -0.597,-17.98 1.104,-26.649 1.166,-5.938 3.486,-11.689 7.175,-16.515 6.588,-8.619 15.492,-12.135 25.956,-13.521 z m 84.807,110.612 c 4.825,21.208 9.431,45.631 9.099,67.443 9.459,-0.543 19.039,-0.237 28.515,-0.225 l 33.314,0.117 c 6.593,0.031 13.368,-0.227 19.926,0.397 -3.854,-27.525 -9.992,-47.475 -24.145,-71.449 -2.375,-4.023 -5.103,-9.674 -8.803,-12.527 -0.823,-0.635 -1.494,-0.695 -2.483,-0.601 -17.975,7.399 -36.245,13.485 -55.423,16.845 z m 69.084,161.722 c 11.069,-19.977 20.726,-43.767 21.42,-66.86 l -53.571,-0.204 c -9.153,0 -18.451,-0.279 -27.586,0.212 -0.477,22.429 -3.476,44.253 -7.549,66.277 19.629,4.101 38.945,8.248 57.819,15.164 3.364,-4.735 6.402,-9.658 9.467,-14.589 z M 605.845,414.688 c 12.06,-0.476 36.927,-0.914 47.755,-4.046 3.266,-0.482 6.539,-0.913 9.819,-1.294 -7.195,-21.941 -21.877,-47.152 -43.156,-58.075 -2.965,-1.522 -5.968,-2.798 -9.349,-2.813 -3.378,2.664 -4.171,5.767 -4.642,9.944 -0.579,5.132 -0.438,10.448 -0.496,15.612 -0.151,13.542 0.422,27.155 0.069,40.672 z m 66.789,171.963 c 5.076,-20.014 6.637,-40.11 7.43,-60.67 -18.602,-0.195 -37.205,-0.274 -55.808,-0.235 -6.022,0.036 -12.087,-0.071 -18.101,0.242 -0.198,18.656 0.436,37.441 -0.178,56.073 19.272,-0.49 38.006,1.821 57.14,3.536 z m -56.259,-88.148 42.348,-10e-4 c 6.858,0.002 14.647,-0.67 21.41,0.344 -1.572,-12.08 -3.324,-53.494 -9.636,-61.916 l -1.086,-0.273 c -21.096,2.406 -41.847,4.503 -63.09,4.976 l -0.229,56.804 z m 122.109,131.559 c -10.129,-3.162 -20.314,-5.702 -30.658,-8.065 -5.254,-1.2 -11.238,-1.901 -16.286,-3.709 -5.405,20.257 -16.522,37.067 -28.528,53.884 11.972,-3.549 23.774,-7.442 34.812,-13.384 14.808,-7.662 28.491,-17.329 40.66,-28.726 z m -48.021,-224.73 c 11.862,-2.989 23.639,-5.733 35.282,-9.534 3.243,-1.165 6.639,-2.205 9.784,-3.6 -3.255,-3.759 -7.558,-6.995 -11.484,-10.049 -18.167,-14.383 -39.098,-24.875 -61.491,-30.825 13.265,15.516 23.247,34.053 27.909,54.008 z m -84.696,203.835 c -0.5,6.125 -0.248,12.397 -0.243,18.546 0.011,14.004 0.363,28.094 -0.03,42.087 2.443,2.975 4.341,5.256 8.47,5.571 6.803,0.519 13.48,-5.397 18.167,-9.704 3.872,-3.513 7.437,-7.35 10.657,-11.47 11.533,-14.855 14.35,-24.484 22.142,-40.296 -13.088,-2.856 -27.154,-3.933 -40.53,-4.312 -6.151,-0.174 -12.532,0.26 -18.633,-0.422 z"
         id="path1" />
      <path
         d="m 392.444,303.707 c 13.845,-1.866 30.234,2.769 42.293,9.38 17.371,9.524 32.018,26.651 37.665,45.77 9.264,0.724 17.318,2.185 25.743,6.213 -0.894,23.714 -0.127,47.715 -0.202,71.462 -2.202,-3.331 -4.787,-6.519 -7.39,-9.549 -19.405,-22.582 -51.559,-40.407 -81.637,-42.638 0.71,-8.599 0.446,-17.247 0.534,-25.866 0.067,-6.62 0.738,-13.75 -0.254,-20.314 -0.419,-2.774 -1.226,-5.546 -2.897,-7.839 -1.902,-2.61 -4.612,-4.081 -7.804,-4.443 -3.637,-0.413 -8.088,0.205 -10.906,2.717 -1.807,1.61 -2.923,3.784 -3.47,6.118 -1.215,5.179 -0.777,10.839 -0.72,16.125 0.12,11.08 0.921,22.38 0.399,33.433 -10.203,1.561 -20.122,3.685 -29.85,7.201 -25.36,9.163 -48.131,27.08 -62.101,50.293 -3.76,6.249 -6.36,12.84 -9.537,19.361 -0.669,1.374 -1.143,2.592 -2.622,3.19 -5.695,2.305 -26.286,-1.981 -36.537,1.744 -3.193,1.16 -5.792,3.198 -7.153,6.368 -1.286,2.994 -1.569,6.894 -0.158,9.893 1.347,2.862 4.093,4.699 6.997,5.735 2.321,0.828 4.817,1.211 7.269,1.388 7.87,0.569 16.03,0.045 23.93,0.014 5.65,-0.023 11.484,0.52 17.098,-0.15 2.164,-0.259 3.997,-1.127 5.943,-2.049 3.886,-5.564 5.378,-11.779 7.741,-18.038 4.655,-12.332 12.893,-23.576 22.13,-32.874 18.475,-18.384 43.53,-28.624 69.594,-28.443 27.301,0.02 52.253,10.669 71.459,29.992 17.962,18.27 27.909,42.94 27.644,68.559 -0.426,25.212 -10.858,49.221 -28.998,66.737 -19.023,18.436 -44.581,28.575 -71.069,28.195 -34.693,-0.584 -65.858,-18.153 -83.326,-48.331 -4.021,-6.947 -6.222,-16.911 -11.946,-22.519 -6.582,-6.449 -32.227,-3.633 -41.681,-3.553 -5.978,-0.112 -13.69,-0.721 -18.915,2.688 -3.455,2.254 -4.457,5.058 -5.359,8.894 0.768,3.42 1.515,6.364 4.086,8.922 2.099,2.089 4.695,3.389 7.571,4.033 9.533,2.132 27.964,0.05 38.559,0.106 5.183,12.805 13.089,24.052 22.221,34.342 19.173,21.603 48.564,36.83 77.587,38.657 -0.544,11.989 -0.351,24.052 -0.374,36.052 -0.015,7.512 -0.622,15.58 0.456,23.001 0.437,3.004 1.206,6.07 3.264,8.394 2.074,2.343 5.181,3.596 8.266,3.781 2.949,0.176 7.07,-0.682 9.297,-2.756 2.009,-1.872 3.111,-4.796 3.624,-7.435 1.133,-5.828 0.742,-12.179 0.786,-18.097 0.106,-14.288 -0.401,-28.572 -0.23,-42.855 l 0.414,-0.046 0.69,-0.084 c 25.628,-3.127 49.632,-14.206 68.637,-31.682 6.714,-6.161 12.669,-13.016 18.693,-19.835 0.224,17.242 0.109,34.494 0.14,51.737 0.016,8.991 0.615,18.182 0.074,27.139 -7.622,4.533 -14.616,7.162 -23.338,8.685 -0.762,2.588 -1.653,5.136 -2.669,7.635 -8.103,20.01 -24.648,37.405 -44.529,45.874 -19.655,8.145 -41.744,8.126 -61.384,-0.053 -24.797,-10.049 -37.315,-28.083 -47.351,-51.883 -23.386,-1.889 -41.861,-7.55 -58.052,-25.464 -16.257,-17.988 -20.546,-38.538 -19.26,-62.174 -6.177,-4.437 -11.843,-9.023 -16.746,-14.876 -13.421,-16.021 -18.72,-36.511 -16.705,-57.153 2.181,-22.353 13.8,-39.747 30.874,-53.727 -1.692,-8.411 -2.004,-17.653 -0.855,-26.157 2.791,-19.957 13.464,-37.963 29.632,-49.992 14.835,-11.185 33.469,-16.099 51.89,-13.684 2.924,-9.365 8.097,-17.986 14.402,-25.466 15.049,-17.852 35.288,-27.776 58.423,-29.803 z m 12.431,219.665 7.374,0.161 c 0.108,0.16 0.217,0.319 0.323,0.48 5.106,7.761 2.849,21.091 14.314,23.288 3.777,0.723 11.367,0.974 14.523,-1.403 0.809,-0.609 1.61,-1.674 1.77,-2.7 0.342,-2.199 -1.099,-5.869 -1.746,-7.983 -4.427,-14.462 -9.823,-28.699 -14.604,-43.059 -4.763,-14.31 -8.999,-29.051 -14.351,-43.137 -0.971,-2.558 -2.209,-4.916 -3.584,-7.277 -5.326,-2.679 -15.606,-1.322 -21.656,-1.076 -2.714,0.339 -4.391,1.006 -6.131,3.188 -1.609,2.018 -2.684,4.408 -3.531,6.83 -3.212,9.179 -5.006,18.814 -7.733,28.136 -3.05,10.427 -19.884,58.052 -19.253,65.217 0.124,1.409 0.502,1.97 1.428,2.998 4.086,1.538 12.574,1.797 16.508,-0.107 2.438,-1.181 3.9,-3.281 4.668,-5.831 1.416,-4.706 0.729,-13.252 5.279,-16.107 6.009,-3.77 19.411,-1.914 26.402,-1.618 z"
         id="path2" />
      <path
         d="m 394.485,458.752 c 4.273,5.65 11.615,38.298 13.309,47.144 l -10.669,0.003 c -4.777,0.161 -9.478,0.286 -14.255,-0.021 0.539,-10.363 7.755,-37.59 11.615,-47.126 z"
         id="path3" />
   </g>
</svg>