<?xml version="1.0" encoding="UTF-8" standalone="no"?>
<svg
   width="1024"
   height="1024"
   version="1.1"
   id="svg3"
   sodipodi:docname="logo-colored.svg"
   inkscape:version="1.4 (e7c3feb100, 2024-10-09)"
   xmlns:inkscape="http://www.inkscape.org/namespaces/inkscape"
   xmlns:sodipodi="http://sodipodi.sourceforge.net/DTD/sodipodi-0.dtd"
   xmlns="http://www.w3.org/2000/svg"
   xmlns:svg="http://www.w3.org/2000/svg">
   <defs
      id="defs3" />
   <sodipodi:namedview
      id="namedview3"
      pagecolor="#ffffff"
      bordercolor="#000000"
      borderopacity="0.25"
      inkscape:showpageshadow="2"
      inkscape:pageopacity="0.0"
      inkscape:pagecheckerboard="0"
      inkscape:deskcolor="#d1d1d1"
      showgrid="true"
      inkscape:zoom="0.28613281"
      inkscape:cx="340.75086"
      inkscape:cy="377.4471"
      inkscape:window-width="1366"
      inkscape:window-height="754"
      inkscape:window-x="0"
      inkscape:window-y="0"
      inkscape:window-maximized="1"
      inkscape:current-layer="svg3">
      <inkscape:grid
         id="grid3"
         units="px"
         originx="0"
         originy="0"
         spacingx="1"
         spacingy="1"
         empcolor="#0099e5"
         empopacity="0.30196078"
         color="#0099e5"
         opacity="0.14901961"
         empspacing="5"
         enabled="true"
         visible="true" />
   </sodipodi:namedview>
   <g
      id="g1"
      transform="matrix(0.96664187,0,0,0.96664187,18.223145,10.507238)">
      <path
         fill="#4f46e5"
         d="m 647.68318,260.88092 c 15.09705,-2.69277 52.78368,1.82892 68.42739,4.93067 65.9182,13.06972 125.53302,56.64265 162.45299,112.12856 36.32879,54.59641 51.31509,124.80008 38.32914,189.34423 -13.38832,69.16436 -54.20907,129.96292 -113.1598,168.53634 -38.10101,25.53338 -82.41631,40.25117 -128.22309,42.58355 -12.08439,0.52505 -24.32671,0.36579 -36.21269,-2.04624 -8.43194,-2.53079 -16.06888,-6.73799 -22.34256,-12.96848 -19.27051,-19.1396 -15.72604,-46.48031 -15.31707,-71.29293 0.15117,-13.94437 0.22271,-27.89009 0.21866,-41.83714 -7.47091,0.77746 -15.27658,0.43462 -22.79609,0.47511 -9.87888,0.0526 -19.84145,0.3307 -29.71224,-0.0418 -7.80026,-0.29426 -16.44278,-1.52928 -21.8823,-7.74358 -3.22593,-3.68484 -4.24365,-8.38875 -3.81982,-13.18174 0.39142,-4.44207 2.29999,-8.36581 5.74053,-11.23135 3.70104,-3.08151 8.35096,-4.64722 13.05892,-5.3626 8.26997,-1.25662 17.60625,-0.38873 25.98286,-0.34283 11.10312,0.0607 22.61387,-0.50481 33.65355,0.67218 -0.65868,-25.23106 -0.88814,-50.47155 -0.69107,-75.7107 -0.46837,0.0985 -1.38081,0.3091 -1.91127,0.37119 -5.00761,0.58714 -10.78727,-0.18897 -15.86102,-0.20922 -13.87957,-0.058 -29.07246,1.22153 -42.77252,-0.92863 -4.06412,-0.63844 -8.36851,-1.63591 -11.50669,-4.45286 -4.12352,-3.70105 -5.96459,-10.14344 -6.01318,-15.52898 -0.0378,-4.06007 1.55222,-7.77595 4.53924,-10.52542 3.12063,-2.87094 7.21446,-4.43261 11.29344,-5.3518 15.24417,-3.43649 45.51658,-0.7977 62.2509,-0.46702 1.29306,-24.12019 0.0607,-52.10476 -0.0149,-76.64742 -10.3351,-0.12149 -20.67156,-0.0932 -31.00666,0.0863 -9.43213,0.22811 -19.4001,1.29847 -28.74043,-0.37389 -4.63642,-0.8301 -9.38083,-2.5092 -12.89425,-5.75132 -3.54987,-3.27587 -5.10883,-7.59104 -5.14662,-12.36379 -0.0391,-4.7687 1.343,-9.34979 4.83482,-12.73228 2.86689,-2.77646 6.65972,-4.47446 10.52273,-5.3329 11.52694,-2.56184 48.74656,-0.60469 62.4979,-0.10528 0.54935,-16.61689 0.15658,-33.45514 0.0122,-50.08687 -0.10259,-11.87923 -0.80581,-24.26867 1.49012,-35.96974 1.57383,-8.01487 4.70527,-15.77733 9.68453,-22.29127 8.89222,-11.63358 20.91047,-16.37933 35.03435,-18.2501 z m 114.46903,149.29957 c 6.51259,28.62569 12.72958,61.59087 12.28146,91.03182 12.76737,-0.73292 25.69806,-0.31989 38.48839,-0.3037 l 44.96587,0.15792 c 8.89897,0.0418 18.04359,-0.30639 26.89532,0.53586 -5.20199,-37.15213 -13.4868,-64.07983 -32.58995,-96.43895 -3.20567,-5.43009 -6.88782,-13.05757 -11.88193,-16.90844 -1.11085,-0.85709 -2.01654,-0.93808 -3.35145,-0.8112 -24.26192,9.98687 -48.92202,18.2015 -74.80771,22.73669 z m 93.24678,218.28577 c 14.94048,-26.96414 27.9751,-59.07492 28.91183,-90.24491 l -72.30795,-0.27534 c -12.35434,0 -24.9044,-0.37659 -37.23446,0.28614 -0.64383,30.27375 -4.69177,59.73089 -10.18933,89.458 26.49442,5.53536 52.56637,11.13282 78.04173,20.46775 4.54059,-6.39111 8.64116,-13.03598 12.77818,-19.69164 z M 637.58157,387.77179 c 16.27811,-0.64249 49.84257,-1.23368 64.45777,-5.46113 4.4083,-0.65059 8.82607,-1.23232 13.25328,-1.74659 -9.71151,-29.61507 -29.52868,-63.64384 -58.25022,-78.38726 -4.00204,-2.05434 -8.05536,-3.77663 -12.61889,-3.79688 -4.55949,3.59576 -5.62985,7.78406 -6.26558,13.42201 -0.78151,6.92696 -0.5912,14.10228 -0.66948,21.07244 -0.20382,18.27843 0.56959,36.65271 0.0932,54.89741 z m 90.14908,232.10865 c 6.85137,-27.01407 8.95835,-54.13885 10.02871,-81.88989 -25.10822,-0.26321 -50.21779,-0.36983 -75.32736,-0.3172 -8.12825,0.0486 -16.31454,-0.0958 -24.432,0.32665 -0.26724,25.1811 0.58849,50.53633 -0.24025,75.68505 26.01256,-0.66138 51.29894,2.45791 77.12524,4.77275 z m -75.9361,-118.97858 57.1596,-8.7e-4 c 9.25664,0.003 19.76992,-0.90434 28.89835,0.46432 -2.12182,-16.3051 -4.48661,-72.20403 -13.00629,-83.5717 l -1.46584,-0.36848 c -28.47451,3.24751 -56.48336,6.07796 -85.15631,6.7164 l -0.30909,76.67172 z m 164.81774,177.57299 c -13.67171,-4.26795 -27.419,-7.69634 -41.38091,-10.88581 -7.09164,-1.61972 -15.1686,-2.5659 -21.98218,-5.00626 -7.29546,27.34207 -22.30072,50.03152 -38.50594,72.73043 16.15933,-4.7903 32.08919,-10.04491 46.98783,-18.06518 19.98724,-10.34187 38.45599,-23.38998 54.8812,-38.77318 z M 751.7955,375.14344 c 16.01085,-4.03443 31.90697,-7.73817 47.62221,-12.8686 4.37727,-1.57247 8.96106,-2.97623 13.20605,-4.85913 -4.39346,-5.07375 -10.20148,-9.44158 -15.50064,-13.56374 -24.52107,-19.41359 -52.77288,-33.57526 -82.99804,-41.60633 17.90455,20.94287 31.37784,45.96335 37.67042,72.8978 z M 637.47631,650.27162 c -0.6749,8.26728 -0.33475,16.73297 -0.32801,25.03264 0.0149,18.90203 0.48996,37.92013 -0.0404,56.80732 3.29746,4.01553 5.8593,7.09433 11.43245,7.5195 9.18241,0.70053 18.19476,-7.28465 24.52108,-13.09806 5.22628,-4.74171 10.03816,-9.92073 14.38438,-15.48174 15.56678,-20.05067 19.36905,-33.0475 29.88637,-54.38989 -17.66565,-3.85492 -36.65136,-5.30861 -54.70574,-5.82017 -8.30237,-0.23486 -16.91518,0.35094 -25.15006,-0.5696 z"
         id="path1"
         style="stroke-width:1.34976" />
      <path
         fill="#4f46e5"
         d="m 349.5416,237.97416 c 18.68742,-2.51866 40.80862,3.73747 57.08537,12.66074 23.44666,12.8551 43.21659,35.97243 50.83867,61.77848 12.50418,0.97722 23.37515,2.94923 34.74687,8.38605 -1.20669,32.00819 -0.17142,64.40377 -0.27266,96.4565 -2.97217,-4.49605 -6.46129,-8.79907 -9.97472,-12.88885 -26.19208,-30.48026 -69.59223,-54.53973 -110.1903,-57.55104 0.95833,-11.60658 0.602,-23.27929 0.72078,-34.91287 0.0904,-8.9354 0.99612,-18.55919 -0.34284,-27.41901 -0.56555,-3.74423 -1.65481,-7.48577 -3.91026,-10.58077 -2.56724,-3.52287 -6.22508,-5.50837 -10.53352,-5.99698 -4.90907,-0.55744 -10.91685,0.27671 -14.72047,3.6673 -2.43902,2.17311 -3.94535,5.10749 -4.68366,8.25783 -1.63996,6.9904 -1.04877,14.63005 -0.97183,21.76487 0.16197,14.95533 1.24312,30.20762 0.53855,45.1265 -13.7716,2.10697 -27.15985,4.97386 -40.29031,9.71963 -34.2299,12.36783 -64.96527,36.55147 -83.82141,67.88343 -5.07509,8.43465 -8.58446,17.33091 -12.87264,26.13268 -0.903,1.85458 -1.54278,3.49858 -3.53907,4.30574 -7.68689,3.1112 -35.47977,-2.67387 -49.31616,2.35398 -4.30978,1.56572 -7.81781,4.31653 -9.65483,8.59528 -1.73579,4.04117 -2.11778,9.30522 -0.21326,13.35316 1.81813,3.86301 5.52457,6.34252 9.44427,7.74087 3.13279,1.1176 6.50179,1.63456 9.8114,1.87346 10.62259,0.76802 21.63664,0.0607 32.29973,0.0189 7.62614,-0.031 15.50064,0.70187 23.07819,-0.20246 2.92087,-0.3496 5.39499,-1.52118 8.02162,-2.76567 5.24516,-7.51005 7.259,-15.8988 10.44849,-24.34694 6.28312,-16.64525 17.40244,-31.82194 29.87016,-44.372 24.93681,-24.81397 58.75503,-38.63551 93.93515,-38.3912 36.84978,0.0269 70.52898,14.40059 96.45244,40.48197 24.24439,24.66012 37.67044,57.95868 37.31276,92.53816 -0.57501,34.03013 -14.65569,66.4365 -39.14032,90.07888 -25.67647,24.88417 -60.17362,38.56937 -95.92605,38.05646 -46.82719,-0.78826 -88.89244,-24.50218 -112.47003,-65.23521 -5.42739,-9.37677 -8.39821,-22.82578 -16.12423,-30.39523 -8.88412,-8.7046 -43.49869,-4.90367 -56.25932,-4.79569 -8.06886,-0.15118 -18.47821,-0.97318 -25.53069,3.62814 -4.66342,3.04236 -6.01588,6.82709 -7.23336,12.00476 1.03661,4.61618 2.04489,8.58988 5.51512,12.04256 2.83314,2.81964 6.33712,4.57433 10.21902,5.44358 12.86725,2.87768 37.74467,0.0675 52.04537,0.14307 6.9958,17.28367 17.667,32.46441 29.993,46.35344 25.87893,29.15884 65.54971,49.71163 104.72377,52.17764 -0.73427,16.18227 -0.47376,32.46441 -0.50481,48.66152 -0.0202,10.1394 -0.83954,21.02924 0.61548,31.04582 0.58986,4.05466 1.62782,8.19303 4.40563,11.32988 2.79939,3.16248 6.9931,4.85373 11.15711,5.10343 3.98044,0.23757 9.5428,-0.92053 12.54871,-3.71992 2.71167,-2.52677 4.19911,-6.47345 4.89153,-10.03548 1.52927,-7.86639 1.00152,-16.43871 1.06091,-24.42658 0.14307,-19.28537 -0.54126,-38.56533 -0.31045,-57.84394 l 0.55881,-0.062 0.93132,-0.11338 c 34.59164,-4.2207 66.99126,-19.17469 92.64343,-42.76308 9.06228,-8.31586 17.1001,-17.56846 25.23105,-26.77248 0.30235,23.27255 0.14713,46.55861 0.18898,69.8325 0.0216,12.13569 0.83009,24.54132 0.0999,36.63112 -10.28787,6.11846 -19.72809,9.66698 -31.50069,11.72266 -1.02852,3.49318 -2.23115,6.93237 -3.60251,10.30541 -10.9371,27.00869 -33.26886,50.48775 -60.10343,61.91886 -26.52951,10.99379 -56.34436,10.96814 -82.85362,-0.0716 -33.46997,-13.56373 -50.36625,-37.90529 -63.91244,-70.02955 -31.56547,-2.5497 -56.50228,-10.19069 -78.35622,-34.37027 -21.94305,-24.27947 -27.73216,-52.01702 -25.99637,-83.91994 -8.33746,-5.98888 -15.9852,-12.17888 -22.60307,-20.07901 -18.11512,-21.6245 -25.267495,-49.28107 -22.54772,-77.1428 2.94382,-30.17116 18.62667,-53.64888 41.67246,-72.51851 -2.2838,-11.35282 -2.70492,-23.82731 -1.15405,-35.30566 3.76718,-26.93714 18.17316,-51.2409 39.99607,-67.47716 20.02367,-15.09706 45.1751,-21.72978 70.03901,-18.47011 3.9467,-12.64049 10.92901,-24.27677 19.43923,-34.37297 20.31254,-24.0959 47.6303,-37.49091 78.85699,-40.22687 z m 16.77885,296.49487 9.95313,0.21731 c 0.14577,0.21596 0.29289,0.43057 0.43597,0.64788 6.89187,10.47549 3.84547,28.46778 19.32046,31.4332 5.09804,0.97587 15.34271,1.31466 19.60255,-1.89372 1.09195,-0.822 2.17312,-2.25949 2.38907,-3.64434 0.46162,-2.96813 -1.48337,-7.92174 -2.35668,-10.77514 -5.97538,-19.52021 -13.25868,-38.73674 -19.71188,-58.11927 -6.4289,-19.31506 -12.14648,-39.21187 -19.3704,-58.22457 -1.31061,-3.45269 -2.98161,-6.63542 -4.83753,-9.82221 -7.18882,-3.616 -21.06434,-1.78437 -29.23038,-1.45233 -3.66326,0.45757 -5.9268,1.35786 -8.27538,4.30303 -2.17177,2.72381 -3.62276,5.94973 -4.766,9.21886 -4.33543,12.38944 -6.75689,25.39436 -10.43769,37.97682 -4.11677,14.07394 -26.83861,78.35623 -25.98692,88.02726 0.16738,1.9018 0.67759,2.65902 1.92746,4.04657 5.51511,2.07593 16.97187,2.42552 22.28183,-0.14442 3.29071,-1.59407 5.26406,-4.42857 6.30067,-7.87045 1.91126,-6.35197 0.98397,-17.88702 7.12538,-21.74057 8.1107,-5.0886 26.20018,-2.58344 35.63634,-2.18391 z"
         id="path2"
         style="stroke-width:1.34976" />
      <path
         fill="#4f46e5"
         d="m 352.29645,447.24758 c 5.76753,7.62614 15.67745,51.69308 17.96395,63.63305 l -14.40057,0.004 c -6.44781,0.21731 -12.79302,0.38604 -19.24083,-0.0284 0.72752,-13.98756 10.46739,-50.73745 15.67745,-63.60877 z"
         id="path3"
         style="stroke-width:1.34976" />
   </g>
</svg>